<?xml version="1.0" encoding="UTF-8"?>
<svg version="1.1" xmlns="http://www.w3.org/2000/svg" width="1024" height="1024">
<path d="M0 0 C337.92 0 675.84 0 1024 0 C1024 337.92 1024 675.84 1024 1024 C686.08 1024 348.16 1024 0 1024 C0 686.08 0 348.16 0 0 Z " fill="#E7E6E2" transform="translate(0,0)"/>
<path d="M0 0 C2.48883576 2.20151307 4.8441319 4.48863102 7.19140625 6.83984375 C8.0215625 7.59910156 8.85171875 8.35835937 9.70703125 9.140625 C26.10695949 24.50926941 35.08561693 46.79447138 36.31762695 69.12792969 C37.08302047 92.77494459 31.65910718 114.06179431 15.69140625 132.08984375 C14.19862275 133.6799827 12.69923908 135.26396793 11.19140625 136.83984375 C10.66289063 137.43152344 10.134375 138.02320313 9.58984375 138.6328125 C-4.28015525 153.6052986 -24.35523491 163.9114736 -44.83789062 165.00097656 C-72.70026369 165.36781124 -72.70026369 165.36781124 -83.80859375 161.83984375 C-84.74058594 161.55367187 -85.67257812 161.2675 -86.6328125 160.97265625 C-88.70613461 160.3058911 -90.76079049 159.58128976 -92.80859375 158.83984375 C-93.02128906 159.6184375 -93.23398437 160.39703125 -93.453125 161.19921875 C-95.29332762 166.14178025 -97.86664747 170.52822643 -100.49609375 175.08984375 C-101.35569702 176.59309204 -101.35569702 176.59309204 -102.23266602 178.12670898 C-103.45806596 180.26731659 -104.68592163 182.40651996 -105.91601562 184.54443359 C-107.79161796 187.81028503 -109.65293346 191.08392838 -111.51171875 194.359375 C-122.98891317 214.51521918 -135.15438309 234.0839196 -148.80859375 252.83984375 C-149.37078613 253.61457031 -149.93297852 254.38929688 -150.51220703 255.1875 C-160.83743754 269.39146048 -171.44782572 283.21948231 -182.9375 296.5 C-188.08089916 302.45669377 -193.1277403 308.51121323 -197.80859375 314.83984375 C-196.49277938 317.67980653 -195.02719832 319.96477576 -193.0078125 322.3515625 C-192.44956787 323.01800781 -191.89132324 323.68445313 -191.31616211 324.37109375 C-190.71553955 325.08265625 -190.11491699 325.79421875 -189.49609375 326.52734375 C-182.90793936 334.42870915 -176.61741442 342.51611915 -170.41748047 350.72363281 C-168.8133186 352.83362902 -167.19122912 354.92845637 -165.5625 357.01953125 C-158.08249197 366.64502014 -151.07204101 376.52027649 -144.28271484 386.64404297 C-142.96171084 388.61176572 -141.63140326 390.57268881 -140.296875 392.53125 C-127.51626023 411.37372297 -115.8654082 430.90854927 -104.60742188 450.68896484 C-102.81664548 453.82574011 -101.01040037 456.95309442 -99.19921875 460.078125 C-98.08979891 461.99867202 -96.98042169 463.91924365 -95.87109375 465.83984375 C-95.35651611 466.72438232 -94.84193848 467.6089209 -94.31176758 468.52026367 C-93.84794678 469.3269751 -93.38412598 470.13368652 -92.90625 470.96484375 C-92.29535522 472.02058594 -92.29535522 472.02058594 -91.67211914 473.09765625 C-90.80859375 474.83984375 -90.80859375 474.83984375 -90.80859375 476.83984375 C-89.79152344 476.44152344 -89.79152344 476.44152344 -88.75390625 476.03515625 C-87.82320312 475.68195313 -86.8925 475.32875 -85.93359375 474.96484375 C-85.02867187 474.61679687 -84.12375 474.26875 -83.19140625 473.91015625 C-61.50127773 467.0474597 -35.99128843 469.41304996 -15.80859375 479.83984375 C6.49873868 492.53194668 23.60349481 513.40784522 31.19140625 537.83984375 C31.51367188 538.8453125 31.8359375 539.85078125 32.16796875 540.88671875 C37.65947094 560.69718459 35.37079493 586.47613673 25.25 604.44140625 C11.392758 627.46379319 -8.40597448 645.67181222 -34.75390625 652.33154297 C-56.98192513 657.69482741 -79.86639416 655.3419306 -99.921875 644.09375 C-123.3428847 629.17255044 -140.0463785 608.98652196 -146.2043457 581.52563477 C-147.18534447 575.54174045 -147.1801007 569.61476222 -147.08984375 563.57177734 C-147.05831591 561.44611141 -147.04881577 559.32119081 -147.04296875 557.1953125 C-147.00164488 550.98653579 -146.79113639 544.98615009 -145.80859375 538.83984375 C-146.33477295 538.56946289 -146.86095215 538.29908203 -147.40307617 538.02050781 C-161.08041988 530.97285808 -174.5220501 523.59800931 -187.80859375 515.83984375 C-188.67436035 515.33807617 -189.54012695 514.83630859 -190.43212891 514.31933594 C-201.09555453 508.12638474 -211.24603233 501.60376965 -221.06591797 494.14697266 C-223.91823321 492.00753643 -226.83399015 489.95920159 -229.74609375 487.90234375 C-236.15820049 483.34866116 -242.45463695 478.64932718 -248.73046875 473.91015625 C-251.43679468 471.86678935 -254.15541641 469.8418822 -256.88671875 467.83203125 C-265.31215971 461.61458095 -273.33656816 455.0852091 -281.22851562 448.20654297 C-289.4778546 441.07122165 -298.13494106 434.4450578 -306.80859375 427.83984375 C-311.03536779 430.88035696 -315.08087681 434.02158818 -318.93359375 437.52734375 C-324.33446872 442.39457179 -330.05456694 446.82839669 -335.79736328 451.27880859 C-337.91865045 452.92526528 -340.03396167 454.57918147 -342.1484375 456.234375 C-345.96964842 459.2232635 -349.80234109 462.19693647 -353.64160156 465.16259766 C-354.99260815 466.2082731 -356.34132859 467.25691723 -357.68652344 468.31005859 C-383.6454149 488.62042128 -412.05407822 505.73386934 -441.02441406 521.33447266 C-445.75821309 523.89397852 -450.47049489 526.49247596 -455.18359375 529.08984375 C-456.48683594 529.80732788 -456.48683594 529.80732788 -457.81640625 530.53930664 C-459.81401788 531.63909466 -461.81141758 532.73926522 -463.80859375 533.83984375 C-463.60363281 534.62488281 -463.39867187 535.40992188 -463.1875 536.21875 C-462.91808594 537.26933594 -462.64867187 538.31992187 -462.37109375 539.40234375 C-462.10425781 540.43488281 -461.83742188 541.46742188 -461.5625 542.53125 C-456.09318626 566.53388595 -461.29912294 589.62044612 -473.62109375 610.58984375 C-477.45456798 616.59927097 -481.84954514 621.74011291 -486.80859375 626.83984375 C-487.74445313 627.86851562 -487.74445313 627.86851562 -488.69921875 628.91796875 C-503.50725037 644.72149829 -525.10726408 654.1002833 -546.62109375 655.21875 C-570.38239376 655.93311979 -592.86328438 650.22034878 -610.80859375 633.83984375 C-611.75347656 633.09863281 -612.69835937 632.35742188 -613.671875 631.59375 C-617.38920153 628.50212368 -620.26355126 624.86126596 -623.18359375 621.02734375 C-623.74868652 620.28613281 -624.3137793 619.54492188 -624.89599609 618.78125 C-639.98995298 598.43178514 -645.70526483 574.47091323 -642.48779297 549.33349609 C-638.53281213 525.52191647 -625.35679786 502.66576947 -605.55078125 488.421875 C-590.22171859 477.93905424 -572.4311109 471.52323887 -553.80859375 470.83984375 C-552.54402344 470.7625 -552.54402344 470.7625 -551.25390625 470.68359375 C-544.12378863 470.42970232 -537.45648591 471.66172367 -530.5078125 473.0859375 C-527.28145596 473.74347373 -524.05740532 474.30844921 -520.80859375 474.83984375 C-520.46304443 474.21343994 -520.11749512 473.58703613 -519.76147461 472.94165039 C-510.78058057 456.6964729 -501.50315236 440.67210232 -491.80859375 424.83984375 C-491.05594238 423.60838623 -491.05594238 423.60838623 -490.28808594 422.35205078 C-467.96621402 385.99294961 -443.05203786 350.83810452 -414.80859375 318.83984375 C-418.2964799 313.9379497 -422.0221448 309.42776927 -426.12109375 305.02734375 C-431.26506204 299.48755264 -436.12077314 293.77302864 -440.80859375 287.83984375 C-441.33356445 287.17678223 -441.85853516 286.5137207 -442.39941406 285.83056641 C-448.77625319 277.75599738 -455.07001267 269.64122348 -460.98901367 261.22363281 C-463.85301961 257.15382086 -466.79887377 253.15331984 -469.77758789 249.16674805 C-482.54770597 232.03430862 -493.97745705 214.3960161 -504.25927734 195.66210938 C-505.79364591 192.86707303 -507.340517 190.0793015 -508.890625 187.29296875 C-509.86388945 185.53809759 -510.8365727 183.78290393 -511.80859375 182.02734375 C-512.24131592 181.24609131 -512.67403809 180.46483887 -513.11987305 179.65991211 C-516.16193945 174.12364804 -519.01844786 168.50695655 -521.80859375 162.83984375 C-522.75734375 163.12859375 -523.70609375 163.41734375 -524.68359375 163.71484375 C-548.86499666 170.52343515 -573.74596875 167.7072986 -595.80859375 155.83984375 C-617.15209308 143.53921758 -632.42340182 122.49775014 -639.03125 98.90234375 C-639.28777344 97.89171875 -639.54429687 96.88109375 -639.80859375 95.83984375 C-640.03417969 94.97359375 -640.25976562 94.10734375 -640.4921875 93.21484375 C-645.51039569 70.51177775 -639.82277793 45.33690841 -627.68359375 25.83984375 C-613.34716409 3.76301696 -592.98470332 -9.27142105 -567.59765625 -15.3984375 C-543.69822283 -20.20296277 -521.40872768 -15.215749 -500.80859375 -2.16015625 C-490.70756232 5.3165206 -482.63430468 13.3048378 -475.80859375 23.83984375 C-475.21949219 24.72285156 -474.63039063 25.60585937 -474.0234375 26.515625 C-460.22568922 48.44039864 -456.42872024 76.00775013 -462.0546875 101.06640625 C-462.80859375 103.83984375 -462.80859375 103.83984375 -463.80859375 105.83984375 C-463.27057129 106.01 -462.73254883 106.18015625 -462.17822266 106.35546875 C-421.18716068 119.62792455 -384.97201666 143.17181747 -350.80859375 168.83984375 C-350.07366699 169.39172363 -349.33874023 169.94360352 -348.58154297 170.51220703 C-322.5875832 190.08761802 -322.5875832 190.08761802 -311.2890625 200.765625 C-309.70875851 202.13348499 -309.70875851 202.13348499 -306.80859375 201.83984375 C-305.03281381 200.707924 -305.03281381 200.707924 -303.25390625 199.12890625 C-302.56393555 198.54898926 -301.87396484 197.96907227 -301.16308594 197.37158203 C-300.42735352 196.7423584 -299.69162109 196.11313477 -298.93359375 195.46484375 C-297.38020479 194.16121153 -295.82550816 192.85913598 -294.26953125 191.55859375 C-293.50479492 190.91792969 -292.74005859 190.27726563 -291.95214844 189.6171875 C-287.64728331 186.04777769 -283.19363441 182.67962287 -278.73486328 179.30517578 C-276.44791492 177.56547185 -274.17334263 175.81010906 -271.8984375 174.0546875 C-262.19457622 166.58333692 -252.43766414 159.2782222 -242.25341797 152.47460938 C-239.85361735 150.8699494 -237.459764 149.25663134 -235.06660461 147.64208984 C-209.6597251 130.51170233 -209.6597251 130.51170233 -197.80859375 123.83984375 C-197.07092773 123.4217041 -196.33326172 123.00356445 -195.57324219 122.57275391 C-178.64518396 113.02647258 -161.22787066 104.44268604 -143.80859375 95.83984375 C-143.87715576 95.18064941 -143.94571777 94.52145508 -144.01635742 93.84228516 C-146.92021384 64.28378246 -143.4414259 38.85385923 -124.45458984 15.14941406 C-92.68329439 -22.75600014 -39.96838467 -30.74063522 0 0 Z " fill="#8001D9" transform="translate(815.80859375,191.16015625)"/>
<path d="M0 0 C3.59459085 3.51069555 6.95233936 7.15336876 10.1875 11 C10.66453369 11.56614014 11.14156738 12.13228027 11.63305664 12.71557617 C16.61136564 18.6669894 21.33033838 24.80498492 26 31 C26.45987305 31.60682617 26.91974609 32.21365234 27.39355469 32.83886719 C30.95581492 37.53950713 34.48544385 42.26361226 38 47 C38.50370117 47.67595215 39.00740234 48.3519043 39.52636719 49.04833984 C52.96513478 67.1370069 65.46252912 86.01938277 76.62597656 105.59814453 C78.26718681 108.4670547 79.92633108 111.32528671 81.5859375 114.18359375 C84.81171754 119.74219171 88.01212056 125.31494053 91.20654297 130.89160156 C92.86811569 133.77141967 94.55598813 136.63370047 96.25390625 139.4921875 C97.19053226 141.09870883 98.12676066 142.70546206 99.0625 144.3125 C99.49820313 145.02849365 99.93390625 145.7444873 100.3828125 146.48217773 C103.13049106 151.26558339 103.13049106 151.26558339 102.52734375 154.66015625 C100.73134737 157.41156759 98.7534588 159.73252913 96.5 162.125 C94.08551892 164.70410479 91.96265593 167.05601611 90 170 C84.01498355 168.32859908 78.79918558 165.39546142 73.375 162.4375 C72.334646 161.8710376 71.29429199 161.3045752 70.22241211 160.72094727 C51.8161002 150.58881986 33.73185767 139.77255832 16.796875 127.31591797 C14.49054497 125.62690725 12.15727867 123.97767988 9.82299805 122.32763672 C-3.41287761 112.95309704 -16.62193037 103.49242101 -29 93 C-30.00933594 92.15179687 -31.01867187 91.30359375 -32.05859375 90.4296875 C-38.49020464 85.01584741 -44.87642051 79.54896953 -51.2434082 74.05932617 C-54.44496896 71.30526003 -57.68405395 68.61687534 -61 66 C-59.53237312 62.60595087 -57.64824703 60.40995342 -55.02856445 57.81738281 C-54.21043777 57.00263489 -53.3923111 56.18788696 -52.5493927 55.34844971 C-51.66297592 54.47549255 -50.77655914 53.6025354 -49.86328125 52.703125 C-48.46816115 51.31595494 -47.07304377 49.92878214 -45.67808056 48.54145432 C-43.72209932 46.5985963 -41.76162068 44.66030775 -39.80108643 42.7220459 C-36.39019258 39.34905243 -32.98389247 35.97143834 -29.5813446 32.59002686 C-27.77214595 30.79297047 -25.96028103 28.99859306 -24.14533997 27.20733643 C-19.2074659 22.30813524 -14.51836025 17.28669326 -10 12 C-7.61539756 9.35914178 -5.21984524 6.7288475 -2.8203125 4.1015625 C-0.96323333 2.13276579 -0.96323333 2.13276579 0 0 Z " fill="#E8E5E3" transform="translate(595,531)"/>
<path d="M0 0 C1.69494439 1.64358244 3.34925103 3.31265807 5 5 C5.64710938 5.62777344 6.29421875 6.25554687 6.9609375 6.90234375 C7.61320313 7.57394531 8.26546875 8.24554688 8.9375 8.9375 C9.87916016 9.87916016 9.87916016 9.87916016 10.83984375 10.83984375 C12 13 12 13 11.27270508 15.7409668 C9.97218104 19.07123638 8.47605831 22.14875208 6.796875 25.3046875 C6.48280197 25.89672974 6.16872894 26.48877197 5.84513855 27.09875488 C4.81913062 29.0272801 3.78532378 30.9514616 2.75 32.875 C2.39374542 33.53961243 2.03749084 34.20422485 1.67044067 34.88897705 C-12.21496468 60.77116502 -26.75314097 86.84219968 -44.63330078 110.20507812 C-46.11473115 112.15067943 -47.57253744 114.11254464 -49.02734375 116.078125 C-61.86768366 133.39972531 -75.57727455 150.86554979 -91 166 C-102.68526549 154.48742316 -102.68526549 154.48742316 -106.375 150.1875 C-120.94526441 133.23424842 -137.15428617 117.74265485 -153 102 C-149.88694696 98.20578485 -146.98822113 94.94391399 -143.125 91.875 C-141.67867187 90.71871094 -141.67867187 90.71871094 -140.203125 89.5390625 C-139.68556641 89.12946289 -139.16800781 88.71986328 -138.63476562 88.29785156 C-136.9308872 86.94513088 -135.23805441 85.57949481 -133.546875 84.2109375 C-93.86348889 52.15917763 -51.31059833 23.97304331 -4.7355957 2.86279297 C-2.73067992 1.91168884 -2.73067992 1.91168884 0 0 Z " fill="#E8E6E3" transform="translate(686,316)"/>
<path d="M0 0 C4.08808304 0.64718118 7.50018014 1.96616946 11.26953125 3.66015625 C12.15977745 4.05838593 12.15977745 4.05838593 13.06800842 4.46466064 C14.98550109 5.32483082 16.89917922 6.19309378 18.8125 7.0625 C19.46583313 7.35756439 20.11916626 7.65262878 20.79229736 7.95663452 C30.64937046 12.40840633 40.40895542 16.99833535 50 22 C51.16015625 22.58394531 52.3203125 23.16789062 53.515625 23.76953125 C65.16530388 29.70702762 76.077493 36.83435316 87 44 C87.8470752 44.55381348 88.69415039 45.10762695 89.56689453 45.67822266 C99.9334671 52.49288549 109.65143797 59.79277326 119.13671875 67.78515625 C122.42526215 70.54914672 125.78909528 73.14285053 129.25 75.6875 C134.29839024 79.40037427 139.07545922 83.36361996 143.81347656 87.4597168 C146.72010884 89.99880371 146.72010884 89.99880371 150 92 C148.58261511 95.25207092 146.87473588 97.31361067 144.3125 99.75 C141.69929903 102.24275283 139.28345821 104.8143748 136.94140625 107.55859375 C131.67870482 113.62763709 125.86107586 119.17063557 120.12109375 124.78295898 C114.00874708 130.76863006 108.31795283 136.84542852 102.97412109 143.54711914 C100.4490477 146.68456811 97.76299812 149.63532373 95 152.5625 C91.6197891 156.00064122 91.6197891 156.00064122 89 160 C87 160 87 160 85.6953125 158.7421875 C85.17710937 158.12601563 84.65890625 157.50984375 84.125 156.875 C83.50367188 156.14410156 82.88234375 155.41320312 82.2421875 154.66015625 C81.50226563 153.78230469 80.76234375 152.90445313 80 152 C79.08711264 150.93518932 78.1729726 149.87145175 77.2578125 148.80859375 C74.67393708 145.80751011 72.1002065 142.79790949 69.52880859 139.78613281 C68.10372046 138.12117836 66.67196522 136.46223918 65.23828125 134.8046875 C57.78635984 126.15014271 50.82915074 117.15163143 44 108 C43.48211914 107.30841797 42.96423828 106.61683594 42.43066406 105.90429688 C28.0712486 86.64365506 14.9735613 66.47726728 3.35546875 45.45068359 C1.98765445 42.97767928 0.60507025 40.51345226 -0.78125 38.05078125 C-2.86597894 34.34099612 -4.92639826 30.61888241 -6.96630859 26.88427734 C-7.89943808 25.18331056 -8.84913154 23.49145611 -9.80078125 21.80078125 C-10.27902344 20.91777344 -10.75726563 20.03476562 -11.25 19.125 C-11.64703125 18.40570313 -12.0440625 17.68640625 -12.453125 16.9453125 C-13 15 -13 15 -12.42578125 13.03125 C-10.56861049 10.38541769 -8.38611532 8.48186613 -5.9375 6.375 C-2.48348875 3.56907909 -2.48348875 3.56907909 0 0 Z " fill="#E7E6E3" transform="translate(335,324)"/>
<path d="M0 0 C3.46395315 1.45931507 5.3748033 3.28823264 7.8125 6.125 C11.99923937 10.89496674 16.28223778 15.55900858 20.625 20.1875 C21.24608643 20.85217285 21.86717285 21.5168457 22.50708008 22.20166016 C25.53796042 25.43272704 28.6007514 28.61828111 31.74609375 31.73828125 C34.0977576 34.07311922 36.31982499 36.44778908 38.4375 39 C41.29110404 42.30816044 44.33818923 45.1082755 47.66796875 47.92578125 C52.67082642 52.37555918 57.30261891 57.2321582 62 62 C53.17848345 70.9001397 43.85110415 78.89840302 33.92724609 86.51855469 C31.92148803 88.06035098 29.9234689 89.61182754 27.92578125 91.1640625 C18.86221234 98.18040792 9.62765483 104.89913004 0.21875 111.44335938 C-2.04539812 113.03185062 -4.28958816 114.6455844 -6.53125 116.265625 C-31.53788199 134.23630832 -58.41246673 149.37746633 -86 163 C-86.60328125 162.31292969 -87.2065625 161.62585938 -87.828125 160.91796875 C-88.62734375 160.01691406 -89.4265625 159.11585938 -90.25 158.1875 C-91.03890625 157.29417969 -91.8278125 156.40085937 -92.640625 155.48046875 C-94.65879445 153.35871775 -96.59916705 151.65745577 -99 150 C-98.41686471 146.23220981 -97.35262218 143.47538895 -95.4453125 140.18359375 C-94.91881104 139.26505615 -94.39230957 138.34651855 -93.84985352 137.40014648 C-93.28065186 136.42247314 -92.7114502 135.4447998 -92.125 134.4375 C-90.92716309 132.35486922 -89.7305687 130.27152335 -88.53515625 128.1875 C-87.93590332 127.14464844 -87.33665039 126.10179687 -86.71923828 125.02734375 C-84.71536561 121.49879772 -82.78602554 117.9346046 -80.86669922 114.35961914 C-60.72849245 76.95955374 -35.10449615 41.18353926 -7.5078125 8.9375 C-4.98087458 5.97759764 -2.48619071 2.99412215 0 0 Z " fill="#E8E6E3" transform="translate(422,534)"/>
<path d="M0 0 C5.94100458 4.92837905 11.39383949 10.24852605 16.84375 15.7109375 C17.77167358 16.63790436 18.69959717 17.56487122 19.65563965 18.51992798 C21.61043252 20.47325525 23.56342816 22.42835674 25.51513672 24.38476562 C27.99607882 26.87139633 30.48147421 29.35351959 32.96825409 31.83431053 C35.36670246 34.22824059 37.76129467 36.62601287 40.15625 39.0234375 C41.03873413 39.9038974 41.92121826 40.7843573 42.83044434 41.6914978 C47.75721841 46.63680917 52.46439485 51.69501874 57 57 C58.64144767 58.83726101 60.28655874 60.67126507 61.9375 62.5 C62.70964844 63.3559375 63.48179687 64.211875 64.27734375 65.09375 C65.13005859 66.03734375 65.13005859 66.03734375 66 67 C59.99707857 81.1537341 42.69331736 93.4940989 31.82592773 104.359375 C29.19412437 106.99107577 26.56933373 109.62965734 23.94613934 112.26993561 C21.89998191 114.32724937 19.84925716 116.37996387 17.79725075 118.43144226 C16.82730727 119.402555 15.85895938 120.37526445 14.89233971 121.34968567 C9.86629375 126.41258087 4.9781229 131.08581981 -1 135 C-1.74572266 134.24904053 -2.49144531 133.49808105 -3.25976562 132.72436523 C-6.06019739 129.9056626 -8.86407745 127.09041081 -11.66894531 124.27612305 C-12.87625065 123.06382752 -14.08265234 121.8506313 -15.28808594 120.63647461 C-24.01705454 111.84169096 -24.01705454 111.84169096 -33.22021484 103.55053711 C-36.48303075 100.70799338 -39.51518753 97.63235879 -42.5625 94.5625 C-43.21798828 93.90435303 -43.87347656 93.24620605 -44.54882812 92.56811523 C-48.88342995 88.19075198 -53.04236757 83.72229248 -57 79 C-58.30973263 77.49758305 -59.62223641 75.99757736 -60.9375 74.5 C-61.95833333 73.33333333 -62.97916667 72.16666667 -64 71 C-62.43290275 65.92652264 -59.33771879 62.38674541 -56 58.375 C-55.12867432 57.31539063 -55.12867432 57.31539063 -54.23974609 56.234375 C-50.0235236 51.14203929 -45.6718917 46.20685612 -41.17578125 41.359375 C-39.33275143 39.3608292 -37.56539274 37.32684507 -35.8125 35.25 C-28.18463924 26.47796013 -19.73492711 18.12302221 -10.8515625 10.62890625 C-7.04852319 7.28319445 -3.54301835 3.61683123 0 0 Z " fill="#E7E6E3" transform="translate(509,439)"/>
<path d="M0 0 C0 0.33 0 0.66 0 1 C-1.98 1 -3.96 1 -6 1 C-6 0.34 -6 -0.32 -6 -1 C-7.010625 -1.28875 -8.02125 -1.5775 -9.0625 -1.875 C-12.70833333 -2.91666667 -16.35416667 -3.95833333 -20 -5 C-20 -5.66 -20 -6.32 -20 -7 C-22.64 -7 -25.28 -7 -28 -7 C-28 -7.66 -28 -8.32 -28 -9 C-28.95712891 -8.98259766 -28.95712891 -8.98259766 -29.93359375 -8.96484375 C-30.75988281 -8.95582031 -31.58617187 -8.94679687 -32.4375 -8.9375 C-33.67306641 -8.92009766 -33.67306641 -8.92009766 -34.93359375 -8.90234375 C-37 -9 -37 -9 -38 -10 C-47.82926107 -10.68331761 -56.49831221 -9.62512938 -66 -7 C-67.60323318 -6.60040261 -69.20725894 -6.20395352 -70.8125 -5.8125 C-71.864375 -5.544375 -72.91625 -5.27625 -74 -5 C-74 -4.34 -74 -3.68 -74 -3 C-74.59167969 -2.81824219 -75.18335938 -2.63648438 -75.79296875 -2.44921875 C-80.25866357 -1.02864699 -83.97976113 0.56349159 -88 3 C-88.66 2.67 -89.32 2.34 -90 2 C-83.79239514 -2.3564939 -77.26964992 -5.22150251 -70.1875 -7.8125 C-68.95132935 -8.26508179 -68.95132935 -8.26508179 -67.69018555 -8.72680664 C-45.11131386 -16.78198411 -20.69775629 -10.73216993 0 0 Z " fill="#7319AE" transform="translate(804,184)"/>
<path d="M0 0 C1.27593337 3.69206252 0.79572621 6.68436504 0.1875 10.5 C-0.06966797 12.18609375 -0.06966797 12.18609375 -0.33203125 13.90625 C-0.92481241 16.65176272 -1.68142611 18.56037139 -3 21 C-6.38744298 37.59847061 -2.65504454 57.05443686 5 72 C5 72.99 5 73.98 5 75 C5.66 75 6.32 75 7 75 C7.84069415 76.60032137 8.67231505 78.20541171 9.5 79.8125 C9.9640625 80.70582031 10.428125 81.59914063 10.90625 82.51953125 C12 85 12 85 12 88 C-1.70119205 70.40734511 -8.04200803 47.17323843 -6 25 C-4.62675007 16.57992018 -2.69955358 8.09866075 0 0 Z " fill="#721FAB" transform="translate(180,233)"/>
<path d="M0 0 C0.99 0.495 0.99 0.495 2 1 C-17.16142557 15.29503177 -41.24414301 19.90717215 -64.69824219 16.62207031 C-77.72286107 14.27713893 -77.72286107 14.27713893 -81 11 C-76.31406325 11.61328016 -71.78817953 12.49365526 -67.1875 13.5625 C-54.0401311 16.35537798 -37.51647223 16.98993193 -25.0625 11.375 C-22.04175878 10.01874884 -20.25553403 9.70404236 -17 10 C-17 9.34 -17 8.68 -17 8 C-14.09399739 6.74335022 -12.20395416 6 -9 6 C-9 5.34 -9 4.68 -9 4 C-7.35 4 -5.7 4 -4 4 C-4 3.34 -4 2.68 -4 2 C-2.125 0.9375 -2.125 0.9375 0 0 Z " fill="#731DAD" transform="translate(313,829)"/>
<path d="M0 0 C0.33 1.32 0.66 2.64 1 4 C0.01 4.33 -0.98 4.66 -2 5 C-2.0825 5.639375 -2.165 6.27875 -2.25 6.9375 C-2.90864263 9.62695739 -3.72821125 11.75070086 -4.875 14.25 C-13.72494364 33.71346302 -14.78141373 56.68425214 -8 77 C-8 78.32 -8 79.64 -8 81 C-7.34 81 -6.68 81 -6 81 C-6 82.65 -6 84.3 -6 86 C-15.94192436 75.1112257 -14.79583243 54.41098862 -14.19970703 40.63525391 C-13.09215742 26.0204733 -8.16436467 12.12991323 0 0 Z " fill="#7222A7" transform="translate(187,705)"/>
<path d="M0 0 C3.78692006 4.13862106 5.40096596 8.13443482 7.0625 13.375 C7.31854004 14.17373535 7.57458008 14.9724707 7.83837891 15.79541016 C13.65017286 34.39241092 15.81549484 54.05962689 10 73 C9.01 73.99 9.01 73.99 8 75 C8 72.69 8 70.38 8 68 C8.66 68 9.32 68 10 68 C10 61.73 10 55.46 10 49 C10.66 49 11.32 49 12 49 C10.33607087 35.48345125 8.1244548 23.13595478 3.25 10.375 C2 7 2 7 2 4 C1.34 4 0.68 4 0 4 C0 2.68 0 1.36 0 0 Z " fill="#701BA8" transform="translate(343,222)"/>
<path d="M0 0 C2.475 0.495 2.475 0.495 5 1 C4.855625 1.70125 4.71125 2.4025 4.5625 3.125 C4.376875 4.07375 4.19125 5.0225 4 6 C3.82855469 6.81597656 3.65710938 7.63195312 3.48046875 8.47265625 C1.03012372 26.46177461 2.20271611 46.14026598 10.01171875 62.6796875 C11 65 11 65 11 68 C11.66 68 12.32 68 13 68 C14.0625 69.8125 14.0625 69.8125 15 72 C14.67 72.99 14.34 73.98 14 75 C4.04658704 60.4964554 0.45918518 44.11060949 0.71875 26.73193359 C0.75027784 24.60626766 0.75977798 22.48134706 0.765625 20.35546875 C0.83459774 9.9925402 0.83459774 9.9925402 1.63769531 5.17333984 C1.75725586 4.1261377 1.87681641 3.07893555 2 2 C1.34 1.34 0.68 0.68 0 0 Z " fill="#711CA6" transform="translate(668,728)"/>
<path d="M0 0 C5.15232289 0.2972494 9.02745308 1.32478164 13.75 3.4375 C30.6061586 10.71868711 48.5395994 8.55095608 66 5 C67.99846731 4.65759743 69.99793603 4.32070387 72 4 C72.495 6.475 72.495 6.475 73 9 C72.65324219 8.46761719 72.30648437 7.93523437 71.94921875 7.38671875 C71.30597656 6.92910156 70.66273438 6.47148437 70 6 C67.48154026 6.46270099 65.2437957 7.05710208 62.8125 7.8125 C41.55458914 13.55083177 19.69515687 10.25938011 0 1 C0 0.67 0 0.34 0 0 Z " fill="#751FAF" transform="translate(224,348)"/>
<path d="M0 0 C0.33 0 0.66 0 1 0 C1 1.98 1 3.96 1 6 C0.34 6 -0.32 6 -1 6 C-1 7.98 -1 9.96 -1 12 C-1.66 12 -2.32 12 -3 12 C-2.97679687 12.56847656 -2.95359375 13.13695312 -2.9296875 13.72265625 C-2.91164063 14.49480469 -2.89359375 15.26695312 -2.875 16.0625 C-2.85179687 16.81660156 -2.82859375 17.57070312 -2.8046875 18.34765625 C-3 21 -3 21 -3.9921875 24.24609375 C-5.16727801 28.62307818 -5.29532612 32.49760536 -5.25 37 C-5.25773438 37.76828125 -5.26546875 38.5365625 -5.2734375 39.328125 C-5.25675872 44.2316862 -4.46964175 48.28441723 -3 53 C-2.92596322 55.33215844 -2.90484114 57.66860788 -3 60 C-4.8125 61.0625 -4.8125 61.0625 -7 62 C-7.99 61.67 -8.98 61.34 -10 61 C-8.68 60.34 -7.36 59.68 -6 59 C-6.06856201 58.34080566 -6.13712402 57.68161133 -6.20776367 57.00244141 C-8.14886991 37.24382197 -8.2495783 18.36653964 0 0 Z " fill="#731CAC" transform="translate(678,228)"/>
<path d="M0 0 C0.66 0.33 1.32 0.66 2 1 C2.81640625 3.4765625 2.81640625 3.4765625 3.5625 6.625 C3.81128906 7.64851562 4.06007813 8.67203125 4.31640625 9.7265625 C8.16419218 28.15196027 6.76293536 46.80587669 -1 64 C-2.2380014 60.42355152 -1.74926071 57.66305234 -1 54 C-0.34 54 0.32 54 1 54 C0.95875 53.278125 0.9175 52.55625 0.875 51.8125 C1.01138988 48.74372775 1.85397674 46.83135159 3 44 C5.28609183 30.57529055 3.69657893 18.16154067 1 5 C0.80277344 4.01257813 0.60554688 3.02515625 0.40234375 2.0078125 C0.26957031 1.34523438 0.13679688 0.68265625 0 0 Z " fill="#7020A3" transform="translate(350,724)"/>
<path d="M0 0 C2.67428959 2.67428959 3.05430885 5.11591177 4.0625 8.75 C4.40410156 9.96171875 4.74570312 11.1734375 5.09765625 12.421875 C6.76729987 19.04262633 7.19361323 25.20269844 7.1875 32 C7.18669434 32.92611084 7.18588867 33.85222168 7.18505859 34.80639648 C7.02452918 52.95094164 7.02452918 52.95094164 3 61 C3.33 54.07 3.66 47.14 4 40 C4.66 40 5.32 40 6 40 C5.57253372 28.65003334 4.67544204 17.67404373 0.90234375 6.8515625 C0 4 0 4 0 0 Z " fill="#741DAB" transform="translate(843,720)"/>
<path d="M0 0 C0.66 0 1.32 0 2 0 C0.36743754 4.18167326 -2.7086575 6.94467643 -5.85546875 10.015625 C-6.72526115 10.87761505 -6.72526115 10.87761505 -7.61262512 11.75701904 C-9.4662186 13.59284019 -11.3263386 15.42185415 -13.1875 17.25 C-15.62189195 19.64761865 -18.05288729 22.04861111 -20.48046875 24.453125 C-21.06069794 25.02703979 -21.64092712 25.60095459 -22.23873901 26.19226074 C-25.9260258 29.86272578 -29.44093437 33.62355397 -32.7590332 37.63574219 C-34 39 -34 39 -36 40 C-36 39.01 -36 38.02 -36 37 C-34.34808509 35.64843325 -32.67705908 34.320238 -31 33 C-29.9665184 31.85124345 -28.9570683 30.68066805 -27.96484375 29.49609375 C-22.63786291 23.32222724 -16.71152586 17.73639878 -10.85546875 12.0703125 C-9.55416016 10.79027344 -9.55416016 10.79027344 -8.2265625 9.484375 C-7.43846191 8.71834961 -6.65036133 7.95232422 -5.83837891 7.16308594 C-4.00922627 5.01085588 -3.37845745 3.75968349 -3 1 C-2.01 1.33 -1.02 1.66 0 2 C0 1.34 0 0.68 0 0 Z " fill="#F9E5FB" transform="translate(472,428)"/>
<path d="M0 0 C0.33 0.99 0.66 1.98 1 3 C-2.05833533 6.08748796 -5.12238919 9.16923946 -8.1875 12.25 C-9.05181641 13.12269531 -9.91613281 13.99539063 -10.80664062 14.89453125 C-11.64775391 15.73886719 -12.48886719 16.58320313 -13.35546875 17.453125 C-14.12528076 18.22817383 -14.89509277 19.00322266 -15.68823242 19.80175781 C-18.02290384 22.02177909 -20.48483411 23.98998199 -23 26 C-24.76323505 28.12603185 -24.76323505 28.12603185 -26 30 C-26.66 29.67 -27.32 29.34 -28 29 C-19.25200001 18.78086488 -9.55158904 9.45693234 0 0 Z " fill="#750EBC" transform="translate(470,433)"/>
<path d="M0 0 C0 0.99 0 1.98 0 3 C-2.62716542 5.01619671 -5.07218608 6.66545964 -8.19921875 7.79296875 C-12.14758348 9.49456526 -15.55644182 11.86871409 -19.125 14.25 C-25.59831057 18.51182286 -32.09566465 22.46581538 -39 26 C-39 25.34 -39 24.68 -39 24 C-37.32617188 22.75415039 -37.32617188 22.75415039 -34.96875 21.34765625 C-34.1022583 20.82324951 -33.2357666 20.29884277 -32.34301758 19.75854492 C-31.40482178 19.1988501 -30.46662598 18.63915527 -29.5 18.0625 C-21.74740061 13.36765408 -14.17932251 8.51657154 -6.80078125 3.25219727 C-2.19883376 0 -2.19883376 0 0 0 Z " fill="#FAE8FC" transform="translate(440,673)"/>
<path d="M0 0 C1.794375 0.2165625 1.794375 0.2165625 3.625 0.4375 C10.06737585 1.1590461 16.53295884 1.56763736 23 2 C23 2.66 23 3.32 23 4 C26.1459188 3.68835671 29.29171832 3.37552415 32.4375 3.0625 C33.75524414 2.93198242 33.75524414 2.93198242 35.09960938 2.79882812 C40.7377215 2.2370974 46.36974661 1.63576615 52 1 C37.90882629 8.32004191 17.8508026 5.95779336 3 2 C2.01 1.34 1.02 0.68 0 0 Z " fill="#701CA8" transform="translate(731,841)"/>
<path d="M0 0 C0 4.27268835 -2.50597169 6.07418141 -5.3125 9 C-5.8477832 9.56871826 -6.38306641 10.13743652 -6.93457031 10.72338867 C-12.1762501 16.26131724 -17.56050683 21.6568758 -23 27 C-23.99 26.67 -24.98 26.34 -26 26 C-17.42 17.42 -8.84 8.84 0 0 Z " fill="#7808C4" transform="translate(543,540)"/>
<path d="M0 0 C0.33 1.32 0.66 2.64 1 4 C-4.75 9 -4.75 9 -7 9 C-6.60095459 9.74685059 -6.20190918 10.49370117 -5.79077148 11.26318359 C-4.31772623 14.02920892 -2.85188388 16.79889301 -1.39086914 19.57128906 C-0.75637627 20.77170733 -0.11901265 21.97061271 0.52124023 23.16796875 C1.43962097 24.88664253 2.34693922 26.61121331 3.25390625 28.3359375 C3.80377197 29.37282715 4.3536377 30.4097168 4.92016602 31.47802734 C5.45468384 32.72640381 5.45468384 32.72640381 6 34 C5.67 34.66 5.34 35.32 5 36 C2.35430143 31.35417637 -0.27272314 26.6988391 -2.87109375 22.02636719 C-3.83422704 20.29755959 -4.80676951 18.5739995 -5.78125 16.8515625 C-6.2453125 15.99304688 -6.709375 15.13453125 -7.1875 14.25 C-7.79658203 13.14398438 -7.79658203 13.14398438 -8.41796875 12.015625 C-9 10 -9 10 -8.33984375 7.9375 C-6.87793867 5.82349149 -5.36510719 4.37156882 -3.375 2.75 C-2.74335938 2.22921875 -2.11171875 1.7084375 -1.4609375 1.171875 C-0.73777344 0.59179688 -0.73777344 0.59179688 0 0 Z " fill="#F8E3FC" transform="translate(331,329)"/>
<path d="M0 0 C0.66 0.33 1.32 0.66 2 1 C-1.7625584 5.44006088 -5.63937323 9.7553293 -9.6875 13.9375 C-10.41324219 14.68902344 -11.13898438 15.44054687 -11.88671875 16.21484375 C-14.01241738 18.01048936 -15.28184674 18.61344547 -18 19 C-15.75176425 14.83660047 -12.92527693 11.65224445 -9.5625 8.375 C-9.08490234 7.89804687 -8.60730469 7.42109375 -8.11523438 6.9296875 C-5.5488679 4.39500457 -2.94961727 2.07798096 0 0 Z " fill="#770EBE" transform="translate(211,679)"/>
<path d="M0 0 C0.33 0.66 0.66 1.32 1 2 C-1.30679502 6.61359004 -4.56545087 11.14450335 -8 15 C-8.66 15 -9.32 15 -10 15 C-10.33 16.65 -10.66 18.3 -11 20 C-11.99 20.33 -12.98 20.66 -14 21 C-14.71727778 22.64551962 -15.38325228 24.31422289 -16 26 C-16.66 26.66 -17.32 27.32 -18 28 C-17.48547435 23.01672383 -15.13823298 19.70909008 -12.375 15.6875 C-11.92785645 15.02613037 -11.48071289 14.36476074 -11.02001953 13.68334961 C-7.67926063 8.81335324 -4.10592308 4.25547657 0 0 Z " fill="#7616B5" transform="translate(697,200)"/>
<path d="M0 0 C0.61328125 1.828125 0.61328125 1.828125 1 4 C-0.8125 6.75 -0.8125 6.75 -3 9 C-3.66 9 -4.32 9 -5 9 C-5.185625 9.66 -5.37125 10.32 -5.5625 11 C-7.62933375 15.31339218 -10.76537811 18.51456519 -14 22 C-14.99 21.67 -15.98 21.34 -17 21 C-5.47835991 6.21867882 -5.47835991 6.21867882 0 0 Z " fill="#7413B7" transform="translate(394,518)"/>
<path d="M0 0 C8.06225194 3.70601696 15.29750825 8.33105208 22.625 13.3125 C23.73531026 14.06109123 24.84598543 14.80914153 25.95703125 15.55664062 C28.64164008 17.36583353 31.32247625 19.18034539 34 21 C33.01 21.495 33.01 21.495 32 22 C29.77591482 20.77393973 27.68316489 19.51096459 25.5625 18.125 C20.99704193 15.14710841 20.99704193 15.14710841 16 13 C15.40703125 12.39414062 14.8140625 11.78828125 14.203125 11.1640625 C10.79087578 7.81231415 6.65459906 5.87058178 2.484375 3.5859375 C1.66453125 3.06257813 0.8446875 2.53921875 0 2 C0 1.34 0 0.68 0 0 Z " fill="#F8E4FC" transform="translate(395,352)"/>
<path d="M0 0 C4.09521476 0.61634766 7.25471655 1.96793284 10.921875 3.87109375 C12.02917969 4.44537109 13.13648438 5.01964844 14.27734375 5.61132812 C15.42332031 6.21396484 16.56929688 6.81660156 17.75 7.4375 C18.91144531 8.03626953 20.07289063 8.63503906 21.26953125 9.25195312 C29.87223919 13.74447838 29.87223919 13.74447838 31 16 C29.35 16 27.7 16 26 16 C26 15.34 26 14.68 26 14 C25.01 14 24.02 14 23 14 C23 13.34 23 12.68 23 12 C22.01 12 21.02 12 20 12 C20 11.34 20 10.68 20 10 C18.68 10 17.36 10 16 10 C16 9.34 16 8.68 16 8 C15.4225 7.87625 14.845 7.7525 14.25 7.625 C11.26023628 6.79451008 8.72993637 5.3877787 6 3.9375 C4.01065256 3.00499339 2.14321257 2.45925984 0 2 C0 1.34 0 0.68 0 0 Z " fill="#7823B2" transform="translate(384,311)"/>
<path d="M0 0 C3.65005259 3.49500611 6.69240867 7.09403902 9.6875 11.1875 C12.46092311 14.96774561 15.08225624 18.17179222 18.5625 21.3125 C21.06101384 24.06727167 21.68911204 25.37297382 22 29 C15.50692753 22.7036873 9.84861483 15.95783564 4.5625 8.625 C4.11302002 8.00568604 3.66354004 7.38637207 3.20043945 6.74829102 C0 2.24458942 0 2.24458942 0 0 Z " fill="#F6E4FA" transform="translate(374,423)"/>
<path d="M0 0 C3.25976906 1.1240583 3.96186478 1.92812978 5.625 5.0625 C6.07875 6.031875 6.5325 7.00125 7 8 C7.66 8.33 8.32 8.66 9 9 C9 9.99 9 10.98 9 12 C9.66 12 10.32 12 11 12 C11 12.99 11 13.98 11 15 C11.66 15 12.32 15 13 15 C13 16.32 13 17.64 13 19 C13.66 19 14.32 19 15 19 C15.33 20.65 15.66 22.3 16 24 C11.74926789 20.22386419 8.85844432 15.5822853 5.75 10.875 C5.19570313 10.05128906 4.64140625 9.22757813 4.0703125 8.37890625 C3.28527344 7.19748047 3.28527344 7.19748047 2.484375 5.9921875 C2.00709961 5.27401855 1.52982422 4.55584961 1.03808594 3.81591797 C0 2 0 2 0 0 Z " fill="#761BB4" transform="translate(644,593)"/>
<path d="M0 0 C5.56445262 4.64196379 10.7499929 9.56691101 15.875 14.6875 C16.64585937 15.44611328 17.41671875 16.20472656 18.2109375 16.98632812 C19.30921875 18.08170898 19.30921875 18.08170898 20.4296875 19.19921875 C21.09210449 19.85752686 21.75452148 20.51583496 22.43701172 21.1940918 C24 23 24 23 25 26 C21.9518812 24.6656304 20.20206757 23.33230023 18.125 20.75 C13.93945684 15.7641442 9.29758092 11.27123039 4.62353516 6.74902344 C4.02718262 6.16411133 3.43083008 5.57919922 2.81640625 4.9765625 C2.27443604 4.45143066 1.73246582 3.92629883 1.17407227 3.38525391 C0 2 0 2 0 0 Z " fill="#FAE5FC" transform="translate(535,465)"/>
<path d="M0 0 C5.88240079 4.14779657 10.9812156 8.72650546 16 13.875 C16.67933594 14.56335938 17.35867188 15.25171875 18.05859375 15.9609375 C19.71046886 17.63607846 21.35743925 19.3157336 23 21 C22.34 21.99 21.68 22.98 21 24 C20.34 24 19.68 24 19 24 C18.97550781 23.32195313 18.95101563 22.64390625 18.92578125 21.9453125 C17.53105661 17.50808727 14.49855919 15.03631279 11.1875 11.875 C10.55779297 11.25496094 9.92808594 10.63492188 9.27929688 9.99609375 C6.78596556 7.56293727 4.35842829 5.26410506 1.55078125 3.1953125 C1.03902344 2.80085937 0.52726562 2.40640625 0 2 C0 1.34 0 0.68 0 0 Z " fill="#F6DBFC" transform="translate(461,575)"/>
<path d="M0 0 C2 0 2 0 3.65625 1.609375 C4.2646875 2.31578125 4.873125 3.0221875 5.5 3.75 C6.1084375 4.44609375 6.716875 5.1421875 7.34375 5.859375 C9 8 9 8 10.03125 10.203125 C10.9273424 12.35632919 10.9273424 12.35632919 14 13 C15.75390625 14.70703125 15.75390625 14.70703125 17.5625 16.8125 C18.16191406 17.49957031 18.76132812 18.18664062 19.37890625 18.89453125 C20.90159064 20.8721864 21.92310516 22.76107683 23 25 C17.45173607 20.42140638 12.47967731 15.49558897 7.5625 10.25 C6.83095703 9.48300781 6.09941406 8.71601563 5.34570312 7.92578125 C4.65541016 7.19230469 3.96511719 6.45882813 3.25390625 5.703125 C2.62814697 5.03958008 2.0023877 4.37603516 1.35766602 3.69238281 C0 2 0 2 0 0 Z " fill="#F8E3FC" transform="translate(573,457)"/>
<path d="M0 0 C0.66 0.33 1.32 0.66 2 1 C-0.08215303 2.77223719 -2.16566919 4.54282726 -4.25 6.3125 C-4.83652344 6.81201172 -5.42304687 7.31152344 -6.02734375 7.82617188 C-8.41009607 9.84749547 -10.76738311 11.83107583 -13.296875 13.66796875 C-15.27345424 15.07037095 -15.27345424 15.07037095 -17 18 C-17.66 17.67 -18.32 17.34 -19 17 C-19.33 17.99 -19.66 18.98 -20 20 C-22.0625 20.6875 -22.0625 20.6875 -24 21 C-20.85906944 16.68708043 -17.3311214 13.68807928 -13.125 10.5 C-11.91859693 9.57379377 -10.71286204 8.64671656 -9.5078125 7.71875 C-8.92547852 7.27144531 -8.34314453 6.82414062 -7.74316406 6.36328125 C-5.10928798 4.30339833 -2.55508567 2.15658607 0 0 Z " fill="#F9E7FB" transform="translate(564,391)"/>
<path d="M0 0 C3.28731688 1.09577229 3.88003756 1.77804601 6 4.375 C9.12292415 8.05964927 12.40124288 11.52288975 15.8125 14.9375 C16.53276367 15.66428955 16.53276367 15.66428955 17.26757812 16.40576172 C19.88484515 19.03343406 19.88484515 19.03343406 23 21 C22.67 21.66 22.34 22.32 22 23 C16.56327764 18.50879458 11.50810204 13.64492557 6.5 8.6875 C5.54649658 7.75333252 5.54649658 7.75333252 4.57373047 6.80029297 C3.68645264 5.91494873 3.68645264 5.91494873 2.78125 5.01171875 C2.24564453 4.48022217 1.71003906 3.94872559 1.15820312 3.40112305 C0 2 0 2 0 0 Z " fill="#F3D8FA" transform="translate(460,525)"/>
<path d="M0 0 C2.475 0.495 2.475 0.495 5 1 C5 1.66 5 2.32 5 3 C5.99 3 6.98 3 8 3 C8 3.66 8 4.32 8 5 C8.99 5 9.98 5 11 5 C11 5.66 11 6.32 11 7 C12.65 7.33 14.3 7.66 16 8 C16.33 8.99 16.66 9.98 17 11 C18.32 11 19.64 11 21 11 C21 11.99 21 12.98 21 14 C15.98459055 12.3479815 11.97550574 9.43029042 7.6875 6.4375 C6.94693359 5.93025391 6.20636719 5.42300781 5.44335938 4.90039062 C1.41966767 2.11532844 1.41966767 2.11532844 0 1 C0 0.67 0 0.34 0 0 Z " fill="#751EB3" transform="translate(419,366)"/>
<path d="M0 0 C0.66 0.33 1.32 0.66 2 1 C1.52949219 1.50789063 1.05898438 2.01578125 0.57421875 2.5390625 C-3.01734405 6.50985864 -5.9022425 10.06409999 -8 15 C-8.66 15 -9.32 15 -10 15 C-9.34 16.65 -8.68 18.3 -8 20 C-9.32 19.01 -10.64 18.02 -12 17 C-10.55540661 12.67411378 -8.36311665 9.72505028 -5.4375 6.25 C-4.63183594 5.28578125 -3.82617188 4.3215625 -2.99609375 3.328125 C-1 1 -1 1 0 0 Z " fill="#F5E3F7" transform="translate(457,493)"/>
<path d="M0 0 C0.66 0 1.32 0 2 0 C2.26554687 0.61488281 2.53109375 1.22976563 2.8046875 1.86328125 C3.15789062 2.67152344 3.51109375 3.47976563 3.875 4.3125 C4.22304688 5.11300781 4.57109375 5.91351563 4.9296875 6.73828125 C6.02571894 9.1961834 6.02571894 9.1961834 8 12 C8 12.99 8 13.98 8 15 C8.66 15 9.32 15 10 15 C12.125 19.625 12.125 19.625 11 23 C9.53223502 20.4842629 8.07577765 17.96301018 6.625 15.4375 C6.2125 14.73302734 5.8 14.02855469 5.375 13.30273438 C2.87258028 8.92349986 1.1740444 4.90905379 0 0 Z " fill="#7A1BB6" transform="translate(297,357)"/>
<path d="M0 0 C4.12751449 0.60698743 7.3321148 2.03810791 11 4 C11 4.66 11 5.32 11 6 C11.99 6 12.98 6 14 6 C14.33 7.32 14.66 8.64 15 10 C11.89257577 8.53181332 9.09528261 6.79975 6.25 4.875 C5.45078125 4.33617187 4.6515625 3.79734375 3.828125 3.2421875 C3.22484375 2.83226562 2.6215625 2.42234375 2 2 C-0.97 4.475 -0.97 4.475 -4 7 C-3.34 5.35 -2.68 3.7 -2 2 C-1.34 2 -0.68 2 0 2 C0 1.34 0 0.68 0 0 Z " fill="#751DAE" transform="translate(506,617)"/>
<path d="M0 0 C0.33 1.32 0.66 2.64 1 4 C0.01 4.33 -0.98 4.66 -2 5 C-2.0825 5.639375 -2.165 6.27875 -2.25 6.9375 C-3.48193035 11.96788225 -5.29663925 17.29663925 -9 21 C-8.50564369 15.60327694 -7.15393269 11.83464285 -4.5 7.125 C-3.55640625 5.42730469 -3.55640625 5.42730469 -2.59375 3.6953125 C-1 1 -1 1 0 0 Z " fill="#741AAF" transform="translate(187,705)"/>
<path d="M0 0 C0.33 0 0.66 0 1 0 C0.68676801 7.36095182 -0.93914605 13.30883089 -4 20 C-5.07174763 16.34811918 -4.76411467 13.73567172 -4 10 C-3.34 10 -2.68 10 -2 10 C-2.061875 8.9171875 -2.061875 8.9171875 -2.125 7.8125 C-1.99078695 4.79270631 -1.24829381 2.73064271 0 0 Z " fill="#7216B0" transform="translate(353,768)"/>
<path d="M0 0 C5.39026228 0.52895097 9.24229489 2.46333696 13.875 5.0625 C14.56335938 5.43955078 15.25171875 5.81660156 15.9609375 6.20507812 C17.6449213 7.12893035 19.32307467 8.06339667 21 9 C20.01 9.495 20.01 9.495 19 10 C16.6796875 9.14453125 16.6796875 9.14453125 13.875 7.8125 C12.89660156 7.35101563 11.91820312 6.88953125 10.91015625 6.4140625 C7.25724029 4.63908857 3.61884435 2.84356221 0 1 C0 0.67 0 0.34 0 0 Z " fill="#7118AB" transform="translate(292,179)"/>
<path d="M0 0 C0.66 0 1.32 0 2 0 C2 0.99 2 1.98 2 3 C2.66 3 3.32 3 4 3 C4 3.99 4 4.98 4 6 C4.66 6 5.32 6 6 6 C6 7.65 6 9.3 6 11 C6.66 11 7.32 11 8 11 C8.33 12.65 8.66 14.3 9 16 C4.84366953 12.45942219 2.21869977 7.93751629 0 3 C0 2.01 0 1.02 0 0 Z " fill="#7A18B7" transform="translate(181,791)"/>
<path d="M0 0 C3.28670403 3.28670403 5 7.35868331 5 12 C5.66 12 6.32 12 7 12 C8.0625 13.8125 8.0625 13.8125 9 16 C8.67 16.99 8.34 17.98 8 19 C4.10453558 13.28452352 1.37952625 7.48720006 -1 1 C-0.67 0.67 -0.34 0.34 0 0 Z " fill="#7621AE" transform="translate(674,784)"/>
<path d="M0 0 C0.33 0.66 0.66 1.32 1 2 C-3.76867078 4.70685418 -8.57170004 7.34648387 -13.4375 9.875 C-14.67306641 10.52082031 -14.67306641 10.52082031 -15.93359375 11.1796875 C-16.61550781 11.45039062 -17.29742187 11.72109375 -18 12 C-18.66 11.67 -19.32 11.34 -20 11 C-13.4 7.37 -6.8 3.74 0 0 Z " fill="#F9E5FD" transform="translate(391,703)"/>
<path d="M0 0 C0 0.66 0 1.32 0 2 C-1.03060547 2.48919922 -1.03060547 2.48919922 -2.08203125 2.98828125 C-3.43361328 3.64376953 -3.43361328 3.64376953 -4.8125 4.3125 C-5.70582031 4.74175781 -6.59914063 5.17101562 -7.51953125 5.61328125 C-10.0122699 6.85918403 -10.0122699 6.85918403 -11.6875 8.6875 C-12.3371875 9.3371875 -12.3371875 9.3371875 -13 10 C-15.1875 9.6875 -15.1875 9.6875 -17 9 C-15.40434605 5.8086921 -12.15338879 4.88215291 -9.0625 3.375 C-8.41603516 3.05015625 -7.76957031 2.7253125 -7.10351562 2.390625 C-2.26702009 0 -2.26702009 0 0 0 Z " fill="#751AB4" transform="translate(352,689)"/>
<path d="M0 0 C0 0.99 0 1.98 0 3 C-3.42113568 5.62552273 -6.85146774 7.76665257 -11 9 C-11.99 8.67 -12.98 8.34 -14 8 C-12.04532248 6.66101601 -10.0866421 5.32870953 -8.125 4 C-7.03445313 3.2575 -5.94390625 2.515 -4.8203125 1.75 C-2 0 -2 0 0 0 Z " fill="#F2E2F6" transform="translate(440,673)"/>
<path d="M0 0 C0.33 0.66 0.66 1.32 1 2 C0.67 2.99 0.34 3.98 0 5 C-0.66 5 -1.32 5 -2 5 C-2 5.99 -2 6.98 -2 8 C-2.66 8 -3.32 8 -4 8 C-4 8.99 -4 9.98 -4 11 C-4.66 11 -5.32 11 -6 11 C-6.33 12.65 -6.66 14.3 -7 16 C-7.99 16.33 -8.98 16.66 -10 17 C-8.51364884 12.78345644 -6.38750841 9.37521395 -3.875 5.6875 C-3.15054687 4.61886719 -2.42609375 3.55023437 -1.6796875 2.44921875 C-0.84824219 1.23685547 -0.84824219 1.23685547 0 0 Z " fill="#771BAF" transform="translate(339,593)"/>
<path d="M0 0 C6.13602988 1.41600689 10.26698362 5.0663375 15 9 C12 9 12 9 9 8 C9 7.34 9 6.68 9 6 C7.35 6.33 5.7 6.66 4 7 C3.67 5.35 3.34 3.7 3 2 C2.01 1.67 1.02 1.34 0 1 C0 0.67 0 0.34 0 0 Z " fill="#7011B1" transform="translate(804,185)"/>
<path d="M0 0 C1 3 1 3 -0.3984375 5.91796875 C-1.05070312 6.99691406 -1.70296875 8.07585938 -2.375 9.1875 C-3.02210938 10.27417969 -3.66921875 11.36085938 -4.3359375 12.48046875 C-5.15964844 13.72763672 -5.15964844 13.72763672 -6 15 C-6.33 15 -6.66 15 -7 15 C-7.125 9.25 -7.125 9.25 -6 7 C-5.01 7 -4.02 7 -3 7 C-3 6.01 -3 5.02 -3 4 C-2.34 4 -1.68 4 -1 4 C-0.67 2.68 -0.34 1.36 0 0 Z " fill="#7615B7" transform="translate(346,790)"/>
<path d="M0 0 C0.66 0.33 1.32 0.66 2 1 C-2.95 7.93 -2.95 7.93 -8 15 C-8.33 14.01 -8.66 13.02 -9 12 C-8.34 12 -7.68 12 -7 12 C-7 11.01 -7 10.02 -7 9 C-6.34 9 -5.68 9 -5 9 C-5 7.68 -5 6.36 -5 5 C-4.34 5 -3.68 5 -3 5 C-2.814375 4.0409375 -2.814375 4.0409375 -2.625 3.0625 C-2.41875 2.381875 -2.2125 1.70125 -2 1 C-1.34 0.67 -0.68 0.34 0 0 Z " fill="#7619B3" transform="translate(378,588)"/>
<path d="M0 0 C0.33 1.32 0.66 2.64 1 4 C0.34 4 -0.32 4 -1 4 C-1.12375 4.639375 -1.2475 5.27875 -1.375 5.9375 C-1.58125 6.618125 -1.7875 7.29875 -2 8 C-2.99 8.495 -2.99 8.495 -4 9 C-4.33 9.99 -4.66 10.98 -5 12 C-5.66 12 -6.32 12 -7 12 C-7 12.99 -7 13.98 -7 15 C-7.99 15.33 -8.98 15.66 -10 16 C-8.55797524 11.84848662 -6.4989562 8.70021555 -3.875 5.1875 C-3.15054688 4.21167969 -2.42609375 3.23585938 -1.6796875 2.23046875 C-0.84824219 1.12638672 -0.84824219 1.12638672 0 0 Z " fill="#7018AD" transform="translate(654,407)"/>
<path d="M0 0 C2.97037488 1.39821701 5.59592533 3.00592343 8.25 4.9375 C8.95640625 5.44152344 9.6628125 5.94554687 10.390625 6.46484375 C10.92171875 6.97144531 11.4528125 7.47804687 12 8 C12 8.99 12 9.98 12 11 C12.66 11.33 13.32 11.66 14 12 C11 12 11 12 8.30078125 9.62890625 C7.29691517 8.61440318 6.30108274 7.59190164 5.3125 6.5625 C4.80138672 6.04623047 4.29027344 5.52996094 3.76367188 4.99804688 C0 1.15397613 0 1.15397613 0 0 Z " fill="#EED5F5" transform="translate(815,190)"/>
<path d="M0 0 C0.6328125 1.8515625 0.6328125 1.8515625 1 4 C-1.125 6.375 -1.125 6.375 -4 9 C-5.7195803 10.96059964 -7.35330066 12.97691224 -9 15 C-9 10.9255567 -6.90830751 8.88254967 -4.5 5.8125 C-3.85611328 4.97428711 -3.85611328 4.97428711 -3.19921875 4.11914062 C-2.13921945 2.74114153 -1.07043812 1.36990593 0 0 Z " fill="#7318AE" transform="translate(643,423)"/>
<path d="M0 0 C3.62743007 0.90685752 5.41746155 2.14942337 7.375 5.25 C8.82711633 8.04883712 8.99716093 9.07665493 8.875 12.375 C8 15 8 15 6 16 C6.4640625 14.7625 6.4640625 14.7625 6.9375 13.5 C7.01228065 9.31228361 6.28858629 8.74978974 3.5625 5.75 C2.90378906 5.08484375 2.24507812 4.4196875 1.56640625 3.734375 C0 2 0 2 0 0 Z " fill="#7319AD" transform="translate(690,319)"/>
<path d="M0 0 C0.33 0.99 0.66 1.98 1 3 C-0.52994792 4.20442708 -2.05989583 5.40885417 -3.58984375 6.61328125 C-5.27155077 8.05683091 -5.27155077 8.05683091 -6 11 C-7.65 10.67 -9.3 10.34 -11 10 C-11 9.01 -11 8.02 -11 7 C-10.34 7.66 -9.68 8.32 -9 9 C-6.03 6.03 -3.06 3.06 0 0 Z " fill="#7218B0" transform="translate(604,472)"/>
<path d="M0 0 C0.33 1.32 0.66 2.64 1 4 C-0.32 4.33 -1.64 4.66 -3 5 C-3.33 6.65 -3.66 8.3 -4 10 C-5.32 10.33 -6.64 10.66 -8 11 C-6.63629701 8.00779732 -5.05091917 5.70973471 -2.875 3.25 C-2.33617187 2.63640625 -1.79734375 2.0228125 -1.2421875 1.390625 C-0.62730469 0.70226562 -0.62730469 0.70226562 0 0 Z " fill="#7419B6" transform="translate(200,202)"/>
<path d="M0 0 C4.88049925 3.9419417 9.0580583 8.11950075 13 13 C10.6875 12.8125 10.6875 12.8125 8 12 C6.5 9.75 6.5 9.75 5 7 C4.113125 6.113125 3.22625 5.22625 2.3125 4.3125 C1.549375 3.549375 0.78625 2.78625 0 2 C0 1.34 0 0.68 0 0 Z " fill="#6D259B" transform="translate(481,547)"/>
<path d="M0 0 C3.48654876 3.84722622 5.91552207 7.90194018 7 13 C6.57421875 15.24609375 6.57421875 15.24609375 6 17 C3.97944157 12.60748167 2.59104765 8.84659077 2 4 C1.34 4 0.68 4 0 4 C0 2.68 0 1.36 0 0 Z " fill="#7518B1" transform="translate(343,222)"/>
<path d="M0 0 C1.24546405 2.49092811 0.7767578 3.41080733 0 6 C-0.66 6 -1.32 6 -2 6 C-2.144375 6.61875 -2.28875 7.2375 -2.4375 7.875 C-3 10 -3 10 -4 12 C-4.99 12 -5.98 12 -7 12 C-5.44298069 7.32894208 -2.91552627 3.91294315 0 0 Z " fill="#7513B3" transform="translate(347,581)"/>
<path d="M0 0 C0 4.09632497 -1.55398196 5.76067881 -4 9 C-6.75 11.375 -6.75 11.375 -9 13 C-9.66 12.67 -10.32 12.34 -11 12 C-7.37 8.04 -3.74 4.08 0 0 Z " fill="#721BB2" transform="translate(441,463)"/>
<path d="M0 0 C-0.33214151 3.09998746 -1.0545012 4.0545012 -3.3125 6.3125 C-6 8 -6 8 -8.16796875 7.60546875 C-8.77253906 7.40566406 -9.37710938 7.20585937 -10 7 C-8.71372289 5.82739389 -7.42080217 4.6620717 -6.125 3.5 C-5.04605469 2.52546875 -5.04605469 2.52546875 -3.9453125 1.53125 C-2 0 -2 0 0 0 Z " fill="#7615B3" transform="translate(711,189)"/>
<path d="M0 0 C1.98 0 3.96 0 6 0 C2.63378119 3.78699616 -1.41641804 6.8272631 -6 9 C-6.66 8.67 -7.32 8.34 -8 8 C-7.50628906 7.67386719 -7.01257813 7.34773437 -6.50390625 7.01171875 C-5.86324219 6.57472656 -5.22257813 6.13773438 -4.5625 5.6875 C-3.92441406 5.25824219 -3.28632813 4.82898438 -2.62890625 4.38671875 C-0.7114316 2.9965948 -0.7114316 2.9965948 0 0 Z " fill="#F6E6F9" transform="translate(217,184)"/>
<path d="M0 0 C4.52615993 3.67832017 8.39424999 7.41086363 12 12 C11.67 12.66 11.34 13.32 11 14 C10.18595703 13.04287109 10.18595703 13.04287109 9.35546875 12.06640625 C8.64003906 11.24011719 7.92460937 10.41382813 7.1875 9.5625 C6.47980469 8.73878906 5.77210938 7.91507813 5.04296875 7.06640625 C3.08890314 4.77835241 3.08890314 4.77835241 0 4 C0 2.68 0 1.36 0 0 Z " fill="#711BA7" transform="translate(324,197)"/>
<path d="M0 0 C4.50002447 1.2272794 6.83678416 2.61863134 10 6 C10.99 6.33 11.98 6.66 13 7 C13.33 7.99 13.66 8.98 14 10 C10.19136032 8.65378455 7.34590149 6.94641263 4.1875 4.4375 C3.39730469 3.81746094 2.60710938 3.19742188 1.79296875 2.55859375 C0.90544922 1.78708984 0.90544922 1.78708984 0 1 C0 0.67 0 0.34 0 0 Z " fill="#7118AC" transform="translate(589,680)"/>
<path d="M0 0 C0.66 0 1.32 0 2 0 C1.64930333 2.59515537 1.33376494 4.52570246 -0.1875 6.6875 C-2.62048302 8.44931529 -5.13206588 9.1714857 -8 10 C-5.49860319 6.78391839 -2.87784527 3.87784527 0 1 C0 0.67 0 0.34 0 0 Z " fill="#7211B7" transform="translate(483,595)"/>
<path d="M0 0 C0.33 0.66 0.66 1.32 1 2 C0.01 3.485 0.01 3.485 -1 5 C-1.66 5 -2.32 5 -3 5 C-3.33 5.99 -3.66 6.98 -4 8 C-5.65 8 -7.3 8 -9 8 C-7.73762269 5.47524538 -6.2095347 4.53394597 -3.9375 2.875 C-2.83728516 2.06675781 -2.83728516 2.06675781 -1.71484375 1.2421875 C-1.14894531 0.83226562 -0.58304688 0.42234375 0 0 Z " fill="#7711B4" transform="translate(516,567)"/>
<path d="M0 0 C0.66 0 1.32 0 2 0 C3.9453125 2.08203125 3.9453125 2.08203125 6.125 4.8125 C6.84945312 5.70582031 7.57390625 6.59914063 8.3203125 7.51953125 C10 10 10 10 10 13 C9.52949219 12.43410156 9.05898438 11.86820313 8.57421875 11.28515625 C7.95160156 10.55167969 7.32898438 9.81820312 6.6875 9.0625 C6.07261719 8.33160156 5.45773437 7.60070312 4.82421875 6.84765625 C3.04024481 4.76179634 3.04024481 4.76179634 0 4 C0 2.68 0 1.36 0 0 Z " fill="#7925AE" transform="translate(615,506)"/>
<path d="M0 0 C0 4.53846154 0 4.53846154 -1 7 C-3.375 8.625 -3.375 8.625 -6 10 C-6.99 10.66 -7.98 11.32 -9 12 C-7.55575365 8.76138697 -5.74227753 6.38030837 -3.375 3.75 C-2.74335937 3.04359375 -2.11171875 2.3371875 -1.4609375 1.609375 C-0.97882812 1.07828125 -0.49671875 0.5471875 0 0 Z " fill="#F7E5FA" transform="translate(638,481)"/>
<path d="M0 0 C0.33 0.66 0.66 1.32 1 2 C0.05689819 4.38020932 -0.93360715 6.67785482 -2 9 C-2.67276716 10.6642135 -3.34206835 12.32986582 -4 14 C-4.66 14 -5.32 14 -6 14 C-5.41892368 10.2397015 -4.34800504 7.46964968 -2.4375 4.1875 C-1.98246094 3.39730469 -1.52742187 2.60710937 -1.05859375 1.79296875 C-0.53458984 0.90544922 -0.53458984 0.90544922 0 0 Z " fill="#7018A6" transform="translate(187,219)"/>
<path d="M0 0 C0 3.10551666 -0.5393715 4.35261084 -2 7 C-3.65 7 -5.3 7 -7 7 C-7 6.34 -7 5.68 -7 5 C-7.66 5 -8.32 5 -9 5 C-9 4.34 -9 3.68 -9 3 C-6.03 3.495 -6.03 3.495 -3 4 C-2.01 2.68 -1.02 1.36 0 0 Z " fill="#730EB7" transform="translate(688,696)"/>
<path d="M0 0 C0.66 0.33 1.32 0.66 2 1 C1.43410156 1.48210938 0.86820312 1.96421875 0.28515625 2.4609375 C-0.44832031 3.09257813 -1.18179687 3.72421875 -1.9375 4.375 C-2.66839844 5.00148438 -3.39929688 5.62796875 -4.15234375 6.2734375 C-6.08380906 7.87747714 -6.08380906 7.87747714 -7 10 C-8.32 9.67 -9.64 9.34 -11 9 C-7.37 6.03 -3.74 3.06 0 0 Z " fill="#771EAF" transform="translate(451,623)"/>
<path d="M0 0 C0 3.77910478 -0.99703962 4.46106101 -3.5 7.1875 C-4.1496875 7.90292969 -4.799375 8.61835937 -5.46875 9.35546875 C-5.9740625 9.89816406 -6.479375 10.44085937 -7 11 C-7.99 10.67 -8.98 10.34 -10 10 C-6.7 6.7 -3.4 3.4 0 0 Z " fill="#6D0FA9" transform="translate(543,540)"/>
<path d="M0 0 C0.66 0.33 1.32 0.66 2 1 C2 1.99 2 2.98 2 4 C3.93897879 6.67398476 3.93897879 6.67398476 6 9 C4.35 8.67 2.7 8.34 1 8 C1 7.01 1 6.02 1 5 C0.01 5 -0.98 5 -2 5 C-2 3.68 -2 2.36 -2 1 C-1.34 0.67 -0.68 0.34 0 0 Z " fill="#6E0DAC" transform="translate(533,415)"/>
<path d="M0 0 C0.66 0.33 1.32 0.66 2 1 C1.01 2.485 1.01 2.485 0 4 C-0.99 4 -1.98 4 -3 4 C-3.66 5.32 -4.32 6.64 -5 8 C-6.32 7.67 -7.64 7.34 -9 7 C-6.03 4.69 -3.06 2.38 0 0 Z " fill="#7315B2" transform="translate(563,351)"/>
<path d="M0 0 C0.33 1.32 0.66 2.64 1 4 C-1.97 6.475 -1.97 6.475 -5 9 C-5.66 8.67 -6.32 8.34 -7 8 C-5.50902342 4.2047869 -3.24299151 2.38957269 0 0 Z " fill="#EFE1F0" transform="translate(331,329)"/>
<path d="M0 0 C0.66 0.33 1.32 0.66 2 1 C-1.0657052 5.65987191 -3.58657319 6.85485202 -9 8 C-6.14723863 5.06799526 -3.34920216 2.35684596 0 0 Z " fill="#F7E5F6" transform="translate(449,665)"/>
<path d="M0 0 C4.09215914 2.28679482 7.49950248 4.90653707 11 8 C11 8.33 11 8.66 11 9 C8.6875 9.3125 8.6875 9.3125 6 9 C4.375 6.625 4.375 6.625 3 4 C2.01 3.34 1.02 2.68 0 2 C0 1.34 0 0.68 0 0 Z " fill="#7117AC" transform="translate(562,621)"/>
<path d="M0 0 C2.91488977 2.6234008 4.88503898 5.71816394 7 9 C6.67 9.66 6.34 10.32 6 11 C3 9 3 9 2 6 C1.34 5.67 0.68 5.34 0 5 C0 3.35 0 1.7 0 0 Z " fill="#7617B2" transform="translate(685,600)"/>
<path d="M0 0 C0 3.15081975 -0.27898465 4.41847698 -2 7 C-4.125 7.75 -4.125 7.75 -6 8 C-6 8.66 -6 9.32 -6 10 C-6.66 9.67 -7.32 9.34 -8 9 C-6.85459775 7.68712379 -5.70866567 6.37470979 -4.5625 5.0625 C-3.92441406 4.33160156 -3.28632813 3.60070312 -2.62890625 2.84765625 C-1.77458541 1.87860647 -0.91348825 0.91348825 0 0 Z " fill="#7723B0" transform="translate(481,421)"/>
<path d="M0 0 C1.98 0 3.96 0 6 0 C6.33 0.66 6.66 1.32 7 2 C4.03 1.505 4.03 1.505 1 1 C0.71125 1.969375 0.4225 2.93875 0.125 3.9375 C-1 7 -1 7 -3 8 C-3 6.35 -3 4.7 -3 3 C-2.34 3 -1.68 3 -1 3 C-0.67 2.01 -0.34 1.02 0 0 Z " fill="#771FAF" transform="translate(722,349)"/>
<path d="M0 0 C3.4375 0.8125 3.4375 0.8125 7 2 C7.33 2.99 7.66 3.98 8 5 C8.99 5 9.98 5 11 5 C11 5.66 11 6.32 11 7 C6.00724943 5.72278474 3.42388092 3.82669043 0 0 Z " fill="#721DAA" transform="translate(210,828)"/>
<path d="M0 0 C5.08938811 1.59043379 8.87456643 4.7446951 13 8 C9.36848887 8 7.89717554 6.98559794 4.8125 5.125 C3.91144531 4.59132813 3.01039063 4.05765625 2.08203125 3.5078125 C1.39496094 3.01023437 0.70789063 2.51265625 0 2 C0 1.34 0 0.68 0 0 Z " fill="#731BAA" transform="translate(608,656)"/>
<path d="M0 0 C0.33 0.99 0.66 1.98 1 3 C-0.21484375 4.82421875 -0.21484375 4.82421875 -1.9375 6.6875 C-2.50339844 7.31011719 -3.06929687 7.93273437 -3.65234375 8.57421875 C-4.09707031 9.04472656 -4.54179688 9.51523437 -5 10 C-5.66 9.67 -6.32 9.34 -7 9 C-5.03681826 5.46627288 -2.95929119 2.75520215 0 0 Z " fill="#780BC4" transform="translate(566,517)"/>
<path d="M0 0 C1.9375 0.3125 1.9375 0.3125 4 1 C4.33 1.99 4.66 2.98 5 4 C6.32 4 7.64 4 9 4 C9 4.99 9 5.98 9 7 C5.56072421 5.7580393 2.74792181 4.44259716 0 2 C0 1.34 0 0.68 0 0 Z " fill="#7A14B6" transform="translate(431,373)"/>
<path d="M0 0 C0 0.66 0 1.32 0 2 C-1.7015625 2.680625 -1.7015625 2.680625 -3.4375 3.375 C-7.04721692 4.57095806 -7.04721692 4.57095806 -8 7 C-9.65 7 -11.3 7 -13 7 C-4.79310345 0 -4.79310345 0 0 0 Z " fill="#761EAF" transform="translate(640,304)"/>
<path d="M0 0 C3.63 1.98 7.26 3.96 11 6 C8 7 8 7 4.375 5.8125 C3.26125 5.214375 2.1475 4.61625 1 4 C0.67 2.68 0.34 1.36 0 0 Z " fill="#721CAD" transform="translate(644,679)"/>
<path d="M0 0 C0.33 0 0.66 0 1 0 C1 1.65 1 3.3 1 5 C-0.98 5.99 -0.98 5.99 -3 7 C-3 7.99 -3 8.98 -3 10 C-3.66 10 -4.32 10 -5 10 C-3.66654496 6.40992874 -2.1056769 3.20429093 0 0 Z " fill="#7618B3" transform="translate(320,623)"/>
<path d="M0 0 C2.9555377 2.75170751 5.11563315 5.41970299 7 9 C7 9.66 7 10.32 7 11 C6.34 11 5.68 11 5 11 C5 10.01 5 9.02 5 8 C4.34 8 3.68 8 3 8 C3 7.34 3 6.68 3 6 C2.34 6 1.68 6 1 6 C0.67 4.02 0.34 2.04 0 0 Z " fill="#771AB1" transform="translate(676,586)"/>
<path d="M0 0 C0.66 0 1.32 0 2 0 C2 0.66 2 1.32 2 2 C2.99 2.33 3.98 2.66 5 3 C6.70586575 4.62652316 8.3777546 6.29006566 10 8 C9.67 8.66 9.34 9.32 9 10 C7.68113228 8.90344712 6.37009943 7.79746577 5.0625 6.6875 C4.33160156 6.07261719 3.60070312 5.45773437 2.84765625 4.82421875 C1 3 1 3 0 0 Z " fill="#802EB3" transform="translate(689,811)"/>
<path d="M0 0 C0.99 0.33 1.98 0.66 3 1 C3 1.66 3 2.32 3 3 C3.66 3 4.32 3 5 3 C5.33 4.98 5.66 6.96 6 9 C2.91910327 6.22719294 1.31224548 3.93673644 0 0 Z " fill="#7413B2" transform="translate(330,416)"/>
<path d="M0 0 C0.66 0 1.32 0 2 0 C2.33 0.99 2.66 1.98 3 3 C1.7934375 3.37125 1.7934375 3.37125 0.5625 3.75 C-0.7059375 4.36875 -0.7059375 4.36875 -2 5 C-2.73323796 7.01508358 -2.73323796 7.01508358 -3 9 C-3.99 9.495 -3.99 9.495 -5 10 C-3.85569823 6.12697862 -2.76679902 2.99736561 0 0 Z " fill="#7708C4" transform="translate(485,416)"/>
<path d="M0 0 C7.38461538 0.49230769 7.38461538 0.49230769 10.5 3.0625 C10.995 3.701875 11.49 4.34125 12 5 C7.61110675 4.33501617 4.0188515 2.81242323 0 1 C0 0.67 0 0.34 0 0 Z " fill="#761BB0" transform="translate(351,330)"/>
<path d="M0 0 C3.3 1.65 6.6 3.3 10 5 C10 5.33 10 5.66 10 6 C8.35 6 6.7 6 5 6 C5 5.34 5 4.68 5 4 C4.01 4 3.02 4 2 4 C2 3.34 2 2.68 2 2 C1.34 2 0.68 2 0 2 C0 1.34 0 0.68 0 0 Z " fill="#7215AD" transform="translate(405,321)"/>
<path d="M0 0 C3.39417765 3.12621626 5.6062718 5.56541027 7 10 C4.625 8.9375 4.625 8.9375 2 7 C0.6875 3.3125 0.6875 3.3125 0 0 Z " fill="#7A1FB3" transform="translate(831,207)"/>
<path d="M0 0 C0.33 0.66 0.66 1.32 1 2 C-0.70625501 4.78388975 -1.47626739 5.85384206 -4.6875 6.75 C-5.8321875 6.87375 -5.8321875 6.87375 -7 7 C-2.25 1.125 -2.25 1.125 0 0 Z " fill="#7212B2" transform="translate(210,193)"/>
<path d="M0 0 C0.66 0.33 1.32 0.66 2 1 C0.02 3.97 -1.96 6.94 -4 10 C-4.33 8.68 -4.66 7.36 -5 6 C-4.01 5.67 -3.02 5.34 -2 5 C-2 4.01 -2 3.02 -2 2 C-1.34 2 -0.68 2 0 2 C0 1.34 0 0.68 0 0 Z " fill="#7819B3" transform="translate(361,613)"/>
<path d="M0 0 C0.75 1.6875 0.75 1.6875 1 4 C-0.9375 6.75 -0.9375 6.75 -3 9 C-3.66 8.67 -4.32 8.34 -5 8 C-2.25 2.25 -2.25 2.25 0 0 Z " fill="#7B13BD" transform="translate(394,518)"/>
<path d="M0 0 C0.66 0 1.32 0 2 0 C2 0.66 2 1.32 2 2 C2.61875 2.04125 3.2375 2.0825 3.875 2.125 C4.57625 2.41375 5.2775 2.7025 6 3 C7.25 6.0625 7.25 6.0625 8 9 C6.84775972 8.07038578 5.70340824 7.1309875 4.5625 6.1875 C3.60537109 5.40439453 3.60537109 5.40439453 2.62890625 4.60546875 C1 3 1 3 0 0 Z " fill="#7618AF" transform="translate(383,487)"/>
<path d="M0 0 C0.99 0.33 1.98 0.66 3 1 C-1.455 3.97 -1.455 3.97 -6 7 C-5.34 5.35 -4.68 3.7 -4 2 C-2.68 2 -1.36 2 0 2 C0 1.34 0 0.68 0 0 Z " fill="#751AAC" transform="translate(446,665)"/>
<path d="M0 0 C0.66 0.33 1.32 0.66 2 1 C1.195625 1.61875 0.39125 2.2375 -0.4375 2.875 C-3.03874519 4.74164041 -3.03874519 4.74164041 -4 7 C-5.32 6.67 -6.64 6.34 -8 6 C-5.36 4.02 -2.72 2.04 0 0 Z " fill="#7220AD" transform="translate(417,648)"/>
<path d="M0 0 C0.33 0.66 0.66 1.32 1 2 C0.22265625 3.7265625 0.22265625 3.7265625 -0.9375 5.625 C-1.618125 6.73875 -2.29875 7.8525 -3 9 C-3.33 9 -3.66 9 -4 9 C-3.6875 5.625 -3.6875 5.625 -3 2 C-2.01 1.34 -1.02 0.68 0 0 Z " fill="#7317B4" transform="translate(712,368)"/>
<path d="M0 0 C0.99 0 1.98 0 3 0 C1.55746343 3.36591866 -0.33264727 5.51047079 -3 8 C-3 7.01 -3 6.02 -3 5 C-2.34 5 -1.68 5 -1 5 C-0.67 3.35 -0.34 1.7 0 0 Z " fill="#7318B1" transform="translate(832,803)"/>
<path d="M0 0 C3.0831351 1.19899698 6.06279492 2.47700477 9 4 C9 4.66 9 5.32 9 6 C5.06326356 4.68775452 2.77280706 3.08089673 0 0 Z " fill="#731DA8" transform="translate(606,692)"/>
<path d="M0 0 C0.33 0.66 0.66 1.32 1 2 C0.67 2.99 0.34 3.98 0 5 C-0.99 5.33 -1.98 5.66 -3 6 C-3.33 6.66 -3.66 7.32 -4 8 C-4.99 7.67 -5.98 7.34 -7 7 C-6.34 7 -5.68 7 -5 7 C-4.731875 6.401875 -4.46375 5.80375 -4.1875 5.1875 C-3.01506533 3.02775192 -1.80630718 1.64209744 0 0 Z " fill="#7517B1" transform="translate(429,477)"/>
<path d="M0 0 C1.875 0.25 1.875 0.25 4 1 C5.3125 2.875 5.3125 2.875 6 5 C5.67 5.99 5.34 6.98 5 8 C4.16382818 6.8562364 3.33113541 5.70992861 2.5 4.5625 C2.0359375 3.92441406 1.571875 3.28632813 1.09375 2.62890625 C0 1 0 1 0 0 Z " fill="#7016B2" transform="translate(355,451)"/>
<path d="M0 0 C0.66 0.33 1.32 0.66 2 1 C-1.32307692 5.8 -1.32307692 5.8 -4.75 6.8125 C-5.4925 6.874375 -6.235 6.93625 -7 7 C-4.66666667 4.66666667 -2.33333333 2.33333333 0 0 Z " fill="#731CAD" transform="translate(544,365)"/>
<path d="M0 0 C1.11196276 3.33588828 1.09809194 4.70572419 0 8 C-2.0625 9.3125 -2.0625 9.3125 -4 10 C-2.8905928 6.51329166 -1.73662334 3.22515763 0 0 Z " fill="#6E12A5" transform="translate(695,335)"/>
<path d="M0 0 C6.4 -0.49230769 6.4 -0.49230769 9.4375 2 C10.2109375 2.99 10.2109375 2.99 11 4 C10.29875 3.855625 9.5975 3.71125 8.875 3.5625 C5.92443859 2.98521625 2.96729849 2.48304859 0 2 C0 1.34 0 0.68 0 0 Z " fill="#741BAE" transform="translate(334,323)"/>
<path d="M0 0 C4.95 1.98 4.95 1.98 10 4 C6.19881294 5.26706235 4.6149628 4.57172296 1 3 C0.67 2.01 0.34 1.02 0 0 Z " fill="#741CAC" transform="translate(353,297)"/>
<path d="M0 0 C-1.24976756 3.65316671 -1.67098753 4.78065836 -5 7 C-4.625 4.0625 -4.625 4.0625 -4 1 C-2 0 -2 0 0 0 Z " fill="#7616B1" transform="translate(385,580)"/>
<path d="M0 0 C0.99 0.33 1.98 0.66 3 1 C0.84365964 3.15634036 -1.37098712 4.47793991 -4 6 C-4.33 5.01 -4.66 4.02 -5 3 C-2.6875 1.4375 -2.6875 1.4375 0 0 Z " fill="#E4DBE6" transform="translate(595,534)"/>
<path d="M0 0 C1.32 0 2.64 0 4 0 C5.0625 1.8125 5.0625 1.8125 6 4 C5.67 4.99 5.34 5.98 5 7 C3.35 4.69 1.7 2.38 0 0 Z " fill="#751BAF" transform="translate(367,468)"/>
<path d="M0 0 C3.40424844 1.13474948 4.21653709 1.96811304 6 5 C5.67 5.99 5.34 6.98 5 8 C0 2.25 0 2.25 0 0 Z " fill="#6E1AAD" transform="translate(339,429)"/>
<path d="M0 0 C4.42857143 5.14285714 4.42857143 5.14285714 5 9 C4.34 9 3.68 9 3 9 C3 8.01 3 7.02 3 6 C2.34 6 1.68 6 1 6 C0.67 4.02 0.34 2.04 0 0 Z " fill="#721FB0" transform="translate(334,362)"/>
<path d="M0 0 C2.97 1.65 5.94 3.3 9 5 C9 5.33 9 5.66 9 6 C6.75 6.25 6.75 6.25 4 6 C1.6875 4.125 1.6875 4.125 0 2 C0 1.34 0 0.68 0 0 Z " fill="#F1DCF6" transform="translate(407,359)"/>
</svg>
